<?xml version="1.0" encoding="UTF-8" standalone="no"?>
<!-- Generator: Adobe Illustrator 18.1.1, SVG Export Plug-In . SVG Version: 6.00 Build 0)  -->
<svg id="Layer_1" xmlns="http://www.w3.org/2000/svg" xml:space="preserve" viewBox="0 0 376 172" version="1.1" y="0px" x="0px" xmlns:xlink="http://www.w3.org/1999/xlink" enable-background="new 0 0 376 172">
	<path d="m87.9 6.1c12.3-4.2 25.3-4.2 38.1-5 9.7-0.8 19.3-0.5 29-0.5 5.7 0.7 11.3-0.4 17 0.3 12.1 0.6 24.2-0.1 36.2 1.7 7.2 1.1 14.5 2 21.3 4.8 13.3 5.2 24.4 14.7 34.4 24.6 5.1 5 9.4 12.2 17 13.5 12.2 2.3 24.7 3 37 5 10 1.6 19.9 3.8 29.6 6.7 4.8 1.5 9.6 3.4 13.4 6.8 4.8 6 5.7 14 6.5 21.4 7.1 4.7 6.8 14.1 7.3 21.6 0.1 13.7-2.4 27.3-2.9 41-0.4 1.9 0.1 4.6-1.9 5.7-10.9 3.6-22.3 5.4-33.8 6.5-22.6 2.8-45.4 4.1-68.2 4.7-23.3-0.6-46.7-1-70-1.6-7.1 1.1-13.9 4.1-20.9 5.6-7 0.9-14.1 1-21.1 1.8-9 1.3-18.7-1.1-25.8-6.9-5.1-4.4-9.7-9.5-12.8-15.6 0.3 0 0.9 0 1.2 0.1 4.2 6 9.3 12 16.5 14.3 6.7 1.9 14.4 1.5 20.2-2.7 4.2-2.9 5.5-8.3 5.9-13.1 0.9-15.6-2.9-30.9-7.3-45.7-2.3-6.8-4.6-13.7-7.8-20.1-2-3.4-4.6-7.1-8.7-8.1-4.4-0.8-7.7 2.8-10.2 5.9-3.3 4.6-5.6 9.8-7.7 14.9-2.5 6.2-3.4 12.8-5.4 19.1-0.5-6.8 1.3-13.5 3.4-20 2.4-6.9 5.5-13.9 10.7-19.2 3-3.1 7.8-4.8 12-2.9 6.4 2.9 9.2 9.8 12.4 15.5 5.8 10.7 7.8 22.8 10.7 34.4 2.2 12.4 4.7 24.8 7.9 37 14.3-0.1 28.7 0.2 43 0.5h54.1c14.3-0.7 28.5-1.6 42.8-2.4 8.4-0.1 16.7-1.8 25.1-2.9 9.5-1.1 18.7-3.7 28.1-5.3 1.1-11.2 1.9-22.5 2.6-33.8 0.1-6.9 0.6-14.1-2.2-20.6-1.2-1-2.9-2.2-4.4-1.2 1 2.3-1.6 3-3.1 3.7-4.4 1.9-8.9-1.5-10.9-5.3-1.3-2.6-4.4-3.5-6-5.8-0.6-3.2-1.1-6.5-0.7-9.8 1.3-1.5 3.8-0.6 5.6-0.9-0.8 3.3-1.2 6.9-0.2 10.2 0.6 2.5 2.4 5.2 5.2 5.5 2.8-0.6 4.5-3.4 5.1-6 0.9-4-1.8-7.5-1.9-11.4 2.6 1.9 2.4 5.6 3.4 8.5 0.9 2.8 0 6.9 2.3 8.7 0.9-6.7-0.5-13.8-3.7-19.8-2.9-4.2-8.6-4.5-13.1-6.1-20.8-6.5-42.6-7.8-63.9-11.5-8.2-1.7-13.2-9.2-18.6-14.9-10.7-11.3-23.2-21.6-38.3-26.2-10.9-2.6-22-4.1-33.2-4.2-27.3-0.7-54.7-1.9-82 0-15 0.8-29.2 7.1-41.8 15.1-15.3 10.9-29.6 22.4-42.8 35-7.5 7.6-11.7 17.6-15.6 27.4-1.3 3.1-1.8 6.5-3.9 9.1 0.3-4.4 2-8.6 3.4-12.8 3.3-9.5 7.6-19 14.7-26.2 13.1-13 27.3-24.9 42.4-35.6 7.8-5.2 16.4-9.4 25.3-12.5z" fill="#124191"/>
	<path d="m108 10.6c3.8 1.5 5.7 5.7 7.2 9.2 2.6 8 4.2 16.3 5.5 24.6 20.7-2.5 41.5-2.1 62.3-2.3 5.7 0.2 11.8-0.8 17.2 1.6 9.2 4.6 19.7 5.9 29.9 6.5 11.9 0.3 23.9-0.5 35.8-0.6-13.1 2.3-26.5 2.8-39.9 2.4-9.8-0.8-19.8-1.9-28.9-5.7-7.1-2-14.7-1.9-22.1-1.9-13.3-0.2-26.6 1.4-40 1.8-5.4 0.3-10.9 0.2-16.3 1.4-4.7-12-5.7-25.1-10.7-37z" fill="#124191"/>
	<path d="m43.5 47.5c11.1-17 28.5-31.2 49.1-33.9 0.1 0.2 0.2 0.6 0.2 0.8-7.8 2.5-15.7 5.1-22.3 10-8.6 6.4-14.9 15.3-20.6 24.3 5.9 0.9 11.8 1.1 17.7 0.9-2.2-4.2 0-10 4.8-10.9 5.5-1.1 11.8-0.9 16.7 2 2.6 1.5 2.3 4.8 2.8 7.3 3.4 0 6.8-0.1 10.2 0.4-3.5 1.6-7.6 1.4-11.3 2.3 1.4 1.2 2.9 2.3 4.3 3.5-0.3 2 0 4.8-2.2 5.9-3 0.5-5.5-2-6.3-4.6-0.9-1.5-1.4-4.2-3.7-3.8-12.1 1.6-24.4 2-36.5 0.6-2.1-0.1-4.1-2.9-2.9-4.8z" fill="#124191"/>
	<path d="m177.9 68.8c-1.7-1.4 0-2.8 0.8-4.1 5.4 2.9 10.9 6.4 17.2 6.9 3.7 0.3 7.4 0.6 11.1 1.3 8.9 1.9 18.2 1.3 27.2 0.2 2.8 1 2.7 4.6 3.4 7 1.5 5.9-1.8 11.6-6.2 15.3-4.4 4-10.9 3.9-16.5 3.5-8.5-1.1-17.7-3.5-23.4-10.3-2.7-2.9-2.8-7-2.2-10.7-3.5-0.4-8-1.5-8.6-5.7 3 0.6 6.9 3.8 9.3 0.6-4.1-0.8-8.6-1.5-12.1-4z" fill="#124191"/>
		<path d="m8 93c1.7-2.6 4.8-4.9 8-3.9 3.5 2 4.9 6 5.7 9.7-1.8-2.7-3-6.7-6.6-7.4-3.3-0.3-5.8 2.7-6.8 5.6-3.1 8.9-3 18.4-2.8 27.7 0.4 6.1 0.6 12.3 3 18 0.8 1.9 2.1 3.9 4.3 4.4 2.7 0.3 5.1-1.6 6.1-4-0.5-4.7-1.5-9.3-2.5-14-0.5 4.2-0.4 8.4-0.9 12.6-0.4-0.1-1.1-0.4-1.5-0.5 0-4.6-0.1-9.2 0.1-13.8-1.1 2.6-2 5.2-2.7 7.9-1.1-0.8-1.8-1.9-1.3-3.3 0.8-2.9 2-5.7 2.5-8.6 0.5-0.3 1.6-0.9 2.2-1.2 0.2 0.7 0.6 2 0.8 2.7 1.9-2.8 1.3-6.3 0.9-9.4-0.3 0.2-0.9 0.5-1.2 0.7-0.3 1.6 0 3.5-1.3 4.8-2.1 1.4-4.7 1.4-7 1.7 1.3-2.5 4.1-2.8 6.4-3.8-1.1-4.2-4.6-8.1-3.3-12.6 1.7 1.7 2.4 4 3.6 6-0.1-3.7-0.4-7.5-0.4-11.2-0.4-1.5 0.8-2.5 1.8-3.3 0.4 4.1 0.3 8.3 1.1 12.3 1-4.2 1.6-8.4 2.5-12.6 0.4 0.4 1.1 1.3 1.4 1.7-0.7 4.6-1 9.2-2.2 13.7 0.3 0 0.8-0.1 1-0.1 3.3-2.8 2-7.2 2.7-11 2.9 3.7 3.7 8.5 4.9 12.9 1.7 9.1 3.3 18.8 8.9 26.4 4.4 1.5 9.3 0.8 13.9 1 20.6 0.6 41.3 1.7 61.7 4.3 1.3 0.4 2.1 1.7 2.8 2.7-23.3-1.2-46.6-2.9-69.6-6.2-2.1 3.2-3.5 7.3-7 9.1-8.3 0.4-16.5-0.2-24.8 0-2.3-2.3-4.3-5-5.4-8.2-4.2-10.4-4.6-21.8-3.9-32.8 0.6-6.2 1.5-12.7 4.9-18zm10.1 25c0.4 1.4 1.8 2 2.7 3 0.1-2.3 0.2-4.5 0.3-6.7-1.1 1.1-2.5 2.2-3 3.7zm-0.2 5.7c1 4.3 0.9 9.1 2.8 13.1 0.3-3.6 0.4-7.2 0.1-10.8-0.6-1.2-2-1.6-2.9-2.3z" fill="#124191"/>
		<path d="m133.3 93.2c4.1-3.3 9.3-4.9 14.6-4.6 1.1 4.9 3.3 9.5 4.3 14.4-0.6 3.5-1.9 6.8-2.8 10.2-0.6 1.1 0.6 1.9 1 2.7 1.5-1.2 3.1-2.5 4.7-3.6 0.6 1.7 1.1 3.3 1.7 5-1.3 1.2-2.8 2.2-3.8 3.7 0 1.3 0.1 2.6 0.3 3.9 1.7 0.1 3.3 0.2 5 0.3 0.3 1.8 0.5 3.7 0.8 5.6l-6.6-0.6c-0.3 1.2-1.3 2.3-1.1 3.6 2.5 3.9 5.9 7.1 8.2 11.2 0.1 3.4-0.7 6.7-1.4 10-3.8 4.2-9.1 7.5-14.9 7.3-7.7 0.7-14.5-4.6-18.3-10.9-5.9-9.7-6.9-21.8-5.1-32.8 1.4-9.7 5.7-19.2 13.4-25.4zm6.1 3.8c1.3 5.3 2.4 10.7 3.9 16 0.3-0.1 1-0.2 1.4-0.3 1.9-5.8 3.3-11.8 4.9-17.7-2.5-0.3-5.1-0.5-7.6 0-0.9 0.2-3.5 0.3-2.6 2z" fill="#124191"/>
</svg>
